<svg width="187" height="31" viewBox="0 0 187 31" fill="none" xmlns="http://www.w3.org/2000/svg">
<path d="M16.92 6.72C16.408 4.16 14.296 0.831999 8.792 0.831999C4.504 0.831999 0.888 3.904 0.888 7.936C0.888 11.36 3.224 13.696 6.84 14.432L10.008 15.072C11.768 15.424 12.76 16.448 12.76 17.76C12.76 19.36 11.448 20.544 9.08 20.544C5.88 20.544 4.312 18.528 4.12 16.288L0.024 17.376C0.376 20.608 3.032 24.48 9.048 24.48C14.328 24.48 17.24 20.96 17.24 17.472C17.24 14.272 15.032 11.584 10.904 10.784L7.736 10.176C6.072 9.856 5.272 8.864 5.272 7.616C5.272 6.112 6.68 4.736 8.824 4.736C11.704 4.736 12.728 6.688 12.952 7.936L16.92 6.72ZM28.0033 11.712C30.1153 11.712 31.1073 13.056 31.4913 14.368L35.2993 13.088C34.6273 10.432 32.1953 7.776 27.9073 7.776C23.3313 7.776 19.7473 11.264 19.7473 16.128C19.7473 20.96 23.3953 24.48 28.0353 24.48C32.2273 24.48 34.6912 21.792 35.3953 19.168L31.6513 17.92C31.2993 19.136 30.2113 20.576 28.0353 20.576C25.8593 20.576 24.0033 18.976 24.0033 16.128C24.0033 13.28 25.8273 11.712 28.0033 11.712ZM42.7445 14.752C42.8405 13.024 43.8965 11.68 45.6885 11.68C47.7365 11.68 48.6005 13.056 48.6005 14.816V24H52.8565V14.08C52.8565 10.624 51.0005 7.84 47.0005 7.84C45.4965 7.84 43.7685 8.352 42.7445 9.568V0.831999H38.4885V24H42.7445V14.752ZM60.379 14.336C60.475 12.896 61.691 11.232 63.899 11.232C66.331 11.232 67.355 12.768 67.419 14.336H60.379ZM67.835 18.432C67.323 19.84 66.235 20.832 64.251 20.832C62.139 20.832 60.379 19.328 60.283 17.248H71.547C71.547 17.184 71.611 16.544 71.611 15.936C71.611 10.88 68.699 7.776 63.835 7.776C59.803 7.776 56.091 11.04 56.091 16.064C56.091 21.376 59.899 24.48 64.219 24.48C68.091 24.48 70.587 22.208 71.387 19.488L67.835 18.432ZM90.2518 0.831999H86.0598V9.824C85.6118 8.992 84.3318 7.872 81.6118 7.872C77.1638 7.872 74.0598 11.488 74.0598 16.096C74.0598 20.864 77.2598 24.384 81.7398 24.384C83.8518 24.384 85.4518 23.424 86.1558 22.176C86.1558 22.912 86.2518 23.68 86.3158 24H90.3798C90.3158 23.36 90.2518 22.208 90.2518 21.152V0.831999ZM78.3478 16.096C78.3478 13.28 80.0758 11.68 82.2517 11.68C84.4278 11.68 86.1238 13.248 86.1238 16.064C86.1238 18.912 84.4278 20.576 82.2517 20.576C80.0118 20.576 78.3478 18.912 78.3478 16.096ZM104.918 24H108.982C108.918 23.456 108.822 22.368 108.822 21.152V8.256H104.566V17.408C104.566 19.232 103.478 20.512 101.59 20.512C99.6055 20.512 98.7095 19.104 98.7095 17.344V8.256H94.4535V18.208C94.4535 21.632 96.6295 24.416 100.438 24.416C102.102 24.416 103.926 23.776 104.79 22.304C104.79 22.944 104.854 23.68 104.918 24ZM117.432 24V0.831999H113.176V24H117.432ZM125.098 14.336C125.194 12.896 126.41 11.232 128.618 11.232C131.05 11.232 132.074 12.768 132.138 14.336H125.098ZM132.554 18.432C132.042 19.84 130.954 20.832 128.97 20.832C126.858 20.832 125.098 19.328 125.002 17.248H136.266C136.266 17.184 136.33 16.544 136.33 15.936C136.33 10.88 133.418 7.776 128.554 7.776C124.522 7.776 120.81 11.04 120.81 16.064C120.81 21.376 124.618 24.48 128.938 24.48C132.81 24.48 135.306 22.208 136.106 19.488L132.554 18.432ZM148.449 24.512C153.313 24.512 157.185 21.536 157.185 15.968V1.312H152.769V15.648C152.769 18.624 151.137 20.192 148.449 20.192C145.825 20.192 144.161 18.624 144.161 15.648V1.312H139.745V15.968C139.745 21.536 143.617 24.512 148.449 24.512ZM165.87 30.08V22.464C166.638 23.52 168.238 24.384 170.414 24.384C174.862 24.384 177.838 20.864 177.838 16.096C177.838 11.424 175.182 7.904 170.574 7.904C168.206 7.904 166.446 8.96 165.742 10.176V8.256H161.614V30.08H165.87ZM173.646 16.128C173.646 18.944 171.918 20.576 169.742 20.576C167.566 20.576 165.806 18.912 165.806 16.128C165.806 13.344 167.566 11.712 169.742 11.712C171.918 11.712 173.646 13.344 173.646 16.128ZM186.07 1.312H180.918L181.942 17.088H185.046L186.07 1.312ZM180.982 21.728C180.982 23.136 182.102 24.256 183.478 24.256C184.886 24.256 186.038 23.136 186.038 21.728C186.038 20.32 184.886 19.168 183.478 19.168C182.102 19.168 180.982 20.32 180.982 21.728Z" fill="white"/>
</svg>
