<svg width="64" height="31" viewBox="0 0 64 31" fill="none" xmlns="http://www.w3.org/2000/svg">
<path d="M16.92 6.72C16.408 4.16 14.296 0.831999 8.792 0.831999C4.504 0.831999 0.888 3.904 0.888 7.936C0.888 11.36 3.224 13.696 6.84 14.432L10.008 15.072C11.768 15.424 12.76 16.448 12.76 17.76C12.76 19.36 11.448 20.544 9.08 20.544C5.88 20.544 4.312 18.528 4.12 16.288L0.024 17.376C0.376 20.608 3.032 24.48 9.048 24.48C14.328 24.48 17.24 20.96 17.24 17.472C17.24 14.272 15.032 11.584 10.904 10.784L7.736 10.176C6.072 9.856 5.272 8.864 5.272 7.616C5.272 6.112 6.68 4.736 8.824 4.736C11.704 4.736 12.728 6.688 12.952 7.936L16.92 6.72ZM30.855 24H34.919C34.855 23.456 34.759 22.368 34.759 21.152V8.256H30.503V17.408C30.503 19.232 29.415 20.512 27.527 20.512C25.543 20.512 24.647 19.104 24.647 17.344V8.256H20.391V18.208C20.391 21.632 22.567 24.416 26.375 24.416C28.039 24.416 29.863 23.776 30.727 22.304C30.727 22.944 30.791 23.68 30.855 24ZM43.3695 30.08V22.464C44.1375 23.52 45.7375 24.384 47.9135 24.384C52.3615 24.384 55.3375 20.864 55.3375 16.096C55.3375 11.424 52.6815 7.904 48.0735 7.904C45.7055 7.904 43.9455 8.96 43.2415 10.176V8.256H39.1135V30.08H43.3695ZM51.1455 16.128C51.1455 18.944 49.4175 20.576 47.2415 20.576C45.0655 20.576 43.3055 18.912 43.3055 16.128C43.3055 13.344 45.0655 11.712 47.2415 11.712C49.4175 11.712 51.1455 13.344 51.1455 16.128ZM63.5698 1.312H58.4178L59.4418 17.088H62.5458L63.5698 1.312ZM58.4818 21.728C58.4818 23.136 59.6018 24.256 60.9778 24.256C62.3858 24.256 63.5378 23.136 63.5378 21.728C63.5378 20.32 62.3858 19.168 60.9778 19.168C59.6018 19.168 58.4818 20.32 58.4818 21.728Z" fill="white"/>
</svg>
